<?xml version='1.0' encoding='utf-8'?>
<svg width="122.70103mm" height="99.211064mm" viewBox="-3.115836 -2.239463 5.351298 4.326842" version="1.1" xmlns="http://www.w3.org/2000/svg">
  <g transform="scale(1,-1)" stroke-linecap="round">
    <g fill="none" stroke="rgb(0,0,0)" stroke-width="0.00392512451171875">
      <line x1="0.0" y1="0.0" x2="2.0" y2="0.0" />
      <line x1="0.0" y1="0.0" x2="0.0" y2="2.0" />
      <path d="M 2.0,0.0 C 1.944444,0.0 1.922222,0.033333 1.9,0.066667" />
      <path d="M 2.0,0.0 C 1.944444,0.0 1.922222,-0.033333 1.9,-0.066667" />
      <path d="M 0.0,2.0 C -0.0,1.944444 -0.033333,1.922222 -0.066667,1.9" />
      <path d="M 0.0,2.0 C -0.0,1.944444 0.033333,1.922222 0.066667,1.9" />
      <line x1="2.0" y1="-0.17" x2="2.223" y2="0.17" />
      <line x1="2.233499" y1="-0.17" x2="2.011501" y2="0.17" />
      <line x1="0.17" y1="2.1175" x2="0.022" y2="2.1175" />
      <line x1="-0.17" y1="2.0" x2="0.022" y2="2.1175" />
      <line x1="0.022" y1="2.1175" x2="-0.17" y2="2.2375" />
    </g>
    <g fill="none" stroke="rgb(214,39,39)" stroke-width="0.00392512451171875" id="m1" stroke-dasharray="0.047101 0.070652">
      <path d="M -1.015192,0.426352 A 1.0,1.0 0.0 1,1 -2.984808,0.426352" />
    </g>
    <g fill="none" stroke="rgb(252,190,72)" stroke-width="0.00392512451171875" id="m2" stroke-dasharray="0.047101 0.070652">
      <path d="M 0.4,-0.6 Q 1.176334,-2.903421 2.0,0.0" />
    </g>
    <g fill="none" stroke="rgb(247,126,0)" stroke-width="0.00392512451171875" id="connector">
      <path d="M -1.015192,0.426352 C -1.049001,0.259629 -1.064717,0.109809 -0.965107,0.021245 C -0.871803,-0.07058 -0.67583,-0.108217 -0.456555,-0.138631 C -0.237655,-0.168993 -0.00811,-0.199198 0.142217,-0.274769 C 0.298101,-0.346975 0.362112,-0.471614 0.4,-0.6" />
    </g>
    <g fill="none" stroke="rgb(171,171,171)" stroke-width="0.00392512451171875" id="comb">
      <line x1="-2.984808" y1="0.426352" x2="-3.096951" y2="0.406578" />
      <line x1="-2.991471" y1="0.469672" x2="-3.104373" y2="0.454831" />
      <line x1="-2.996229" y1="0.513242" x2="-3.109674" y2="0.503362" />
      <line x1="-2.999074" y1="0.556979" x2="-3.112842" y2="0.55208" />
      <line x1="-3.0" y1="0.600798" x2="-3.113873" y2="0.600889" />
      <line x1="-2.999004" y1="0.644616" x2="-3.112764" y2="0.649696" />
      <line x1="-2.99609" y1="0.688348" x2="-3.109518" y2="0.698409" />
      <line x1="-2.991262" y1="0.731911" x2="-3.10414" y2="0.746932" />
      <line x1="-2.984529" y1="0.77522" x2="-3.096641" y2="0.795173" />
      <line x1="-2.975906" y1="0.818192" x2="-3.087036" y2="0.843038" />
      <line x1="-2.965408" y1="0.860746" x2="-3.075342" y2="0.890438" />
      <line x1="-2.953055" y1="0.902798" x2="-3.061583" y2="0.937279" />
      <line x1="-2.938871" y1="0.944269" x2="-3.045784" y2="0.983472" />
      <line x1="-2.922884" y1="0.985078" x2="-3.027976" y2="1.028928" />
      <line x1="-2.905124" y1="1.025148" x2="-3.008194" y2="1.073561" />
      <line x1="-2.885625" y1="1.064401" x2="-2.986474" y2="1.117284" />
      <line x1="-2.864425" y1="1.102762" x2="-2.96286" y2="1.160013" />
      <line x1="-2.841564" y1="1.140157" x2="-2.937396" y2="1.201666" />
      <line x1="-2.817087" y1="1.176514" x2="-2.910132" y2="1.242164" />
      <line x1="-2.79104" y1="1.211764" x2="-2.881119" y2="1.281428" />
      <line x1="-2.763474" y1="1.245839" x2="-2.850413" y2="1.319383" />
      <line x1="-2.734441" y1="1.278673" x2="-2.818074" y2="1.355956" />
      <line x1="-2.703997" y1="1.310203" x2="-2.784163" y2="1.391077" />
      <line x1="-2.6722" y1="1.340369" x2="-2.748746" y2="1.424678" />
      <line x1="-2.639113" y1="1.369113" x2="-2.711891" y2="1.456695" />
      <line x1="-2.604797" y1="1.39638" x2="-2.673668" y2="1.487066" />
      <line x1="-2.56932" y1="1.422116" x2="-2.63415" y2="1.515733" />
      <line x1="-2.532749" y1="1.446273" x2="-2.593415" y2="1.542641" />
      <line x1="-2.495155" y1="1.468805" x2="-2.55154" y2="1.567739" />
      <line x1="-2.456609" y1="1.489667" x2="-2.508605" y2="1.590977" />
      <line x1="-2.417187" y1="1.508821" x2="-2.464693" y2="1.612312" />
      <line x1="-2.376963" y1="1.526229" x2="-2.419889" y2="1.631701" />
      <line x1="-2.336014" y1="1.541857" x2="-2.374278" y2="1.64911" />
      <line x1="-2.294421" y1="1.555676" x2="-2.327947" y2="1.664502" />
      <line x1="-2.252261" y1="1.567659" x2="-2.280987" y2="1.67785" />
      <line x1="-2.209618" y1="1.577783" x2="-2.233487" y2="1.689127" />
      <line x1="-2.166571" y1="1.586029" x2="-2.185539" y2="1.698312" />
      <line x1="-2.123205" y1="1.592381" x2="-2.137234" y2="1.705387" />
      <line x1="-2.079601" y1="1.596827" x2="-2.088666" y2="1.710339" />
      <line x1="-2.035845" y1="1.599357" x2="-2.039927" y2="1.713158" />
      <line x1="-1.99202" y1="1.599968" x2="-1.991112" y2="1.713838" />
      <line x1="-1.948211" y1="1.598658" x2="-1.942313" y2="1.712379" />
      <line x1="-1.9045" y1="1.595429" x2="-1.893626" y2="1.708783" />
      <line x1="-1.860974" y1="1.590289" x2="-1.845142" y2="1.703056" />
      <line x1="-1.817714" y1="1.583246" x2="-1.796957" y2="1.695211" />
      <line x1="-1.774805" y1="1.574314" x2="-1.749161" y2="1.685262" />
      <line x1="-1.732328" y1="1.56351" x2="-1.701847" y2="1.673228" />
      <line x1="-1.690365" y1="1.550856" x2="-1.655106" y2="1.659133" />
      <line x1="-1.648997" y1="1.536374" x2="-1.609027" y2="1.643003" />
      <line x1="-1.608304" y1="1.520095" x2="-1.5637" y2="1.624869" />
      <line x1="-1.568363" y1="1.502047" x2="-1.519211" y2="1.604767" />
      <line x1="-1.529251" y1="1.482267" x2="-1.475645" y2="1.582734" />
      <line x1="-1.491043" y1="1.460792" x2="-1.433086" y2="1.558814" />
      <line x1="-1.453813" y1="1.437663" x2="-1.391617" y2="1.533051" />
      <line x1="-1.417632" y1="1.412926" x2="-1.351316" y2="1.505496" />
      <line x1="-1.382571" y1="1.386626" x2="-1.312262" y2="1.476202" />
      <line x1="-1.348695" y1="1.358816" x2="-1.274528" y2="1.445225" />
      <line x1="-1.31607" y1="1.329548" x2="-1.238188" y2="1.412624" />
      <line x1="-1.284759" y1="1.298878" x2="-1.203312" y2="1.378462" />
      <line x1="-1.254822" y1="1.266866" x2="-1.169966" y2="1.342804" />
      <line x1="-1.226317" y1="1.233572" x2="-1.138214" y2="1.30572" />
      <line x1="-1.199297" y1="1.199062" x2="-1.108119" y2="1.267279" />
      <line x1="-1.173816" y1="1.163401" x2="-1.079736" y2="1.227557" />
      <line x1="-1.149922" y1="1.126658" x2="-1.053121" y2="1.18663" />
      <line x1="-1.127662" y1="1.088902" x2="-1.028325" y2="1.144575" />
      <line x1="-1.107076" y1="1.050208" x2="-1.005396" y2="1.101475" />
      <line x1="-1.088206" y1="1.010649" x2="-0.984377" y2="1.057411" />
      <line x1="-1.071088" y1="0.970301" x2="-0.96531" y2="1.012468" />
      <line x1="-1.055754" y1="0.929241" x2="-0.94823" y2="0.966733" />
      <line x1="-1.042234" y1="0.88755" x2="-0.93317" y2="0.920294" />
      <line x1="-1.030554" y1="0.845305" x2="-0.92016" y2="0.873239" />
      <line x1="-1.020736" y1="0.80259" x2="-0.909224" y2="0.82566" />
      <line x1="-1.0128" y1="0.759485" x2="-0.900384" y2="0.777646" />
      <line x1="-1.006759" y1="0.716074" x2="-0.893656" y2="0.729292" />
      <line x1="-1.002627" y1="0.67244" x2="-0.889053" y2="0.680689" />
      <line x1="-1.000411" y1="0.628667" x2="-0.886584" y2="0.631932" />
      <line x1="-1.000115" y1="0.584839" x2="-0.886254" y2="0.583112" />
      <line x1="-1.00174" y1="0.54104" x2="-0.888064" y2="0.534326" />
      <line x1="-1.005282" y1="0.497354" x2="-0.89201" y2="0.485665" />
      <line x1="-1.010735" y1="0.453865" x2="-0.898084" y2="0.437224" />
      <line x1="-1.017988" y1="0.410638" x2="-1.008386" y2="0.408918" />
      <line x1="-1.02566" y1="0.367479" x2="-1.064104" y2="0.374138" />
      <line x1="-1.032681" y1="0.324211" x2="-1.120634" y2="0.337236" />
      <line x1="-1.038207" y1="0.280729" x2="-1.183067" y2="0.295583" />
      <line x1="-1.041271" y1="0.23701" x2="-1.255545" y2="0.244158" />
      <line x1="-1.040698" y1="0.193196" x2="-1.338464" y2="0.173854" />
      <line x1="-1.035095" y1="0.149753" x2="-1.419887" y2="0.07265" />
      <line x1="-1.02304" y1="0.107661" x2="-1.464479" y2="-0.061182" />
      <line x1="-1.003642" y1="0.068425" x2="-1.428659" y2="-0.194939" />
      <line x1="-0.977175" y1="0.033561" x2="-1.315635" y2="-0.276248" />
      <line x1="-0.945021" y1="0.003838" x2="-1.179066" y2="-0.292845" />
      <line x1="-0.908885" y1="-0.020922" x2="-1.059748" y2="-0.273224" />
      <line x1="-0.870163" y1="-0.04143" x2="-0.965653" y2="-0.244422" />
      <line x1="-0.829801" y1="-0.058503" x2="-0.890751" y2="-0.218457" />
      <line x1="-0.788391" y1="-0.072865" x2="-0.82802" y2="-0.198221" />
      <line x1="-0.746302" y1="-0.085102" x2="-0.772587" y2="-0.183283" />
      <line x1="-0.703763" y1="-0.095673" x2="-0.721503" y2="-0.17246" />
      <line x1="-0.660921" y1="-0.104943" x2="-0.673039" y2="-0.164638" />
      <line x1="-0.617871" y1="-0.113201" x2="-0.626183" y2="-0.158957" />
      <line x1="-0.57468" y1="-0.120684" x2="-0.580329" y2="-0.15479" />
      <line x1="-0.531392" y1="-0.127589" x2="-0.535105" y2="-0.151696" />
      <line x1="-0.48804" y1="-0.134086" x2="-0.490274" y2="-0.149362" />
      <line x1="-0.444651" y1="-0.140324" x2="-0.445677" y2="-0.147564" />
      <line x1="-0.401244" y1="-0.146439" x2="-0.401202" y2="-0.146139" />
      <line x1="-0.357838" y1="-0.152558" x2="-0.356759" y2="-0.144961" />
      <line x1="-0.314451" y1="-0.158806" x2="-0.312272" y2="-0.143927" />
      <line x1="-0.271101" y1="-0.165305" x2="-0.267661" y2="-0.142947" />
      <line x1="-0.22781" y1="-0.172182" x2="-0.222838" y2="-0.14193" />
      <line x1="-0.184604" y1="-0.17957" x2="-0.17769" y2="-0.140779" />
      <line x1="-0.141514" y1="-0.187614" x2="-0.13207" y2="-0.139385" />
      <line x1="-0.098585" y1="-0.196473" x2="-0.085772" y2="-0.137621" />
      <line x1="-0.055873" y1="-0.206328" x2="-0.038506" y2="-0.135351" />
      <line x1="-0.013455" y1="-0.217383" x2="0.010137" y2="-0.132443" />
      <line x1="0.028563" y1="-0.229876" x2="0.060734" y2="-0.128819" />
      <line x1="0.070035" y1="-0.244077" x2="0.114067" y2="-0.12457" />
      <line x1="0.110758" y1="-0.2603" x2="0.171124" y2="-0.120174" />
      <line x1="0.150456" y1="-0.278889" x2="0.232943" y2="-0.116908" />
      <line x1="0.188751" y1="-0.300212" x2="0.300099" y2="-0.117428" />
      <line x1="0.225157" y1="-0.324611" x2="0.371532" y2="-0.126302" />
      <line x1="0.259086" y1="-0.35234" x2="0.442771" y2="-0.149645" />
      <line x1="0.289921" y1="-0.383463" x2="0.504794" y2="-0.192691" />
      <line x1="0.317151" y1="-0.417775" x2="0.546121" y2="-0.255679" />
      <line x1="0.340552" y1="-0.454801" x2="0.558527" y2="-0.331965" />
      <line x1="0.360312" y1="-0.493891" x2="0.541215" y2="-0.411755" />
      <line x1="0.377052" y1="-0.53437" x2="0.498507" y2="-0.488309" />
      <line x1="0.391772" y1="-0.575629" x2="0.433621" y2="-0.56137" />
      <line x1="0.405802" y1="-0.617139" x2="0.389861" y2="-0.622559" />
      <line x1="0.420048" y1="-0.658592" x2="0.403219" y2="-0.664439" />
      <line x1="0.434578" y1="-0.699946" x2="0.416779" y2="-0.706272" />
      <line x1="0.449409" y1="-0.741194" x2="0.430545" y2="-0.748057" />
      <line x1="0.464558" y1="-0.782325" x2="0.444523" y2="-0.789796" />
      <line x1="0.480045" y1="-0.823331" x2="0.458717" y2="-0.831491" />
      <line x1="0.495893" y1="-0.864198" x2="0.473133" y2="-0.873145" />
      <line x1="0.512124" y1="-0.904915" x2="0.487772" y2="-0.914762" />
      <line x1="0.528767" y1="-0.945465" x2="0.502637" y2="-0.956352" />
      <line x1="0.545851" y1="-0.985831" x2="0.517727" y2="-0.997924" />
      <line x1="0.56341" y1="-1.025993" x2="0.533041" y2="-1.039496" />
      <line x1="0.581481" y1="-1.065926" x2="0.54857" y2="-1.08109" />
      <line x1="0.600109" y1="-1.105604" x2="0.564305" y2="-1.122738" />
      <line x1="0.619341" y1="-1.144992" x2="0.580227" y2="-1.164486" />
      <line x1="0.639233" y1="-1.18405" x2="0.596311" y2="-1.206399" />
      <line x1="0.659851" y1="-1.22273" x2="0.612521" y2="-1.24857" />
      <line x1="0.681269" y1="-1.260973" x2="0.628806" y2="-1.291131" />
      <line x1="0.703572" y1="-1.298706" x2="0.6451" y2="-1.334273" />
      <line x1="0.726864" y1="-1.335836" x2="0.66132" y2="-1.378277" />
      <line x1="0.751264" y1="-1.372248" x2="0.677369" y2="-1.423552" />
      <line x1="0.776912" y1="-1.40779" x2="0.693153" y2="-1.470708" />
      <line x1="0.803976" y1="-1.442265" x2="0.708623" y2="-1.520648" />
      <line x1="0.832651" y1="-1.47541" x2="0.723891" y2="-1.574706" />
      <line x1="0.863164" y1="-1.506869" x2="0.739494" y2="-1.634787" />
      <line x1="0.895764" y1="-1.536155" x2="0.756953" y2="-1.703401" />
      <line x1="0.930701" y1="-1.562599" x2="0.779856" y2="-1.783163" />
      <line x1="0.96817" y1="-1.585299" x2="0.815407" y2="-1.874679" />
      <line x1="1.008186" y1="-1.603102" x2="0.874899" y2="-1.971289" />
      <line x1="1.050405" y1="-1.614705" x2="0.968268" y2="-2.052096" />
      <line x1="1.093973" y1="-1.618986" x2="1.089835" y2="-2.085417" />
      <line x1="1.137617" y1="-1.615478" x2="1.211969" y2="-2.054151" />
      <line x1="1.180058" y1="-1.604618" x2="1.306741" y2="-1.974921" />
      <line x1="1.220411" y1="-1.587514" x2="1.367918" y2="-1.879332" />
      <line x1="1.258288" y1="-1.565474" x2="1.405068" y2="-1.788487" />
      <line x1="1.293666" y1="-1.539675" x2="1.429367" y2="-1.709258" />
      <line x1="1.326718" y1="-1.511042" x2="1.448021" y2="-1.64114" />
      <line x1="1.357691" y1="-1.480249" x2="1.464657" y2="-1.581556" />
      <line x1="1.386847" y1="-1.447776" x2="1.480836" y2="-1.527994" />
      <line x1="1.414422" y1="-1.41396" x2="1.497136" y2="-1.478537" />
      <line x1="1.440623" y1="-1.379043" x2="1.513704" y2="-1.431834" />
      <line x1="1.465625" y1="-1.3432" x2="1.530521" y2="-1.386966" />
      <line x1="1.489572" y1="-1.306567" x2="1.547511" y2="-1.343311" />
      <line x1="1.512581" y1="-1.269248" x2="1.564591" y2="-1.300448" />
      <line x1="1.534751" y1="-1.231331" x2="1.581683" y2="-1.258095" />
      <line x1="1.556162" y1="-1.192889" x2="1.598724" y2="-1.216057" />
      <line x1="1.576885" y1="-1.153986" x2="1.615664" y2="-1.174208" />
      <line x1="1.596975" y1="-1.114676" x2="1.632462" y2="-1.132459" />
      <line x1="1.616481" y1="-1.075011" x2="1.64909" y2="-1.090755" />
      <line x1="1.635447" y1="-1.035034" x2="1.665524" y2="-1.049059" />
      <line x1="1.653909" y1="-0.994785" x2="1.68175" y2="-1.00735" />
      <line x1="1.6719" y1="-0.9543" x2="1.697756" y2="-0.965616" />
      <line x1="1.689448" y1="-0.913611" x2="1.713535" y2="-0.923851" />
      <line x1="1.70658" y1="-0.872748" x2="1.729084" y2="-0.882054" />
      <line x1="1.723319" y1="-0.831734" x2="1.7444" y2="-0.840227" />
      <line x1="1.739687" y1="-0.790594" x2="1.759485" y2="-0.798374" />
      <line x1="1.755704" y1="-0.749347" x2="1.774341" y2="-0.756499" />
      <line x1="1.771388" y1="-0.708009" x2="1.78897" y2="-0.714605" />
      <line x1="1.786756" y1="-0.666597" x2="1.803377" y2="-0.672699" />
      <line x1="1.801824" y1="-0.625122" x2="1.817567" y2="-0.630783" />
      <line x1="1.816606" y1="-0.583597" x2="1.831545" y2="-0.588863" />
      <line x1="1.831116" y1="-0.54203" x2="1.845317" y2="-0.54694" />
      <line x1="1.845368" y1="-0.500429" x2="1.858888" y2="-0.505018" />
      <line x1="1.859373" y1="-0.4588" x2="1.872265" y2="-0.4631" />
      <line x1="1.873143" y1="-0.41715" x2="1.885454" y2="-0.421185" />
      <line x1="1.886689" y1="-0.375481" x2="1.89846" y2="-0.379277" />
      <line x1="1.90002" y1="-0.333798" x2="1.911291" y2="-0.337374" />
      <line x1="1.913147" y1="-0.292103" x2="1.923951" y2="-0.295478" />
      <line x1="1.926079" y1="-0.250398" x2="1.936447" y2="-0.253589" />
      <line x1="1.938823" y1="-0.208684" x2="1.948784" y2="-0.211705" />
      <line x1="1.951388" y1="-0.166962" x2="1.960967" y2="-0.169827" />
      <line x1="1.963781" y1="-0.125233" x2="1.973003" y2="-0.127953" />
      <line x1="1.97601" y1="-0.083496" x2="1.984896" y2="-0.086082" />
      <line x1="1.988081" y1="-0.041752" x2="1.996651" y2="-0.044214" />
      <line x1="2.0" y1="0.0" x2="2.008272" y2="-0.002347" />
    </g>
  </g>
</svg>