<?xml version='1.0' encoding='utf-8'?>
<svg width="100.09mm" height="74.42496mm" viewBox="-1.503375 -3.578497 7.50675 5.581872" version="1.1" xmlns="http://www.w3.org/2000/svg">
  <g transform="scale(1,-1)" stroke-linecap="round">
    <g fill="none" stroke="rgb(0,0,0)" stroke-width="0.00675">
      <path d="M 5.590595,1.212439 A 6.0,6.0 0.0 0,1 -0.272937,3.474959" />
      <path d="M -1.34373,1.333374 A 6.0,6.0 0.0 0,1 3.984405,-1.999939" />
      <path d="M 3.724868,1.980985 A 6.0,6.0 0.0 0,1 0.910053,0.807606" />
      <path d="M 1.499947,1.987394 A 6.0,6.0 0.0 0,1 2.250132,-0.968485" />
      <path d="M 2.00006,-0.015505 A 6.0,6.0 0.0 0,1 1.333253,2.68734" />
      <path d="M 0.25008,0.520994 A 6.0,6.0 0.0 0,1 2.81244,1.609255" />
      <path d="M 2.481824,-1.301976 A 6.0,6.0 0.0 0,1 -0.414541,0.558419" />
      <path d="M 0.904541,3.196581 A 6.0,6.0 0.0 0,1 4.130676,1.995726" />
    </g>
    <g fill="none" stroke="rgb(0,0,0)" stroke-width="0.00675" id="dashed" stroke-dasharray="0.081 0.1215">
      <circle cx="4.0" cy="0.0" r="2.0" />
      <circle cx="0.0" cy="2.0" r="1.5" />
    </g>
  </g>
</svg>