<?xml version='1.0' encoding='utf-8'?>
<svg width="100.09mm" height="56.394348mm" viewBox="-2.752588 -2.240088 5.755175 3.242675" version="1.1" xmlns="http://www.w3.org/2000/svg">
  <g transform="scale(1,-1)" stroke-linecap="round">
    <g fill="none" stroke="rgb(0,0,0)" stroke-width="0.005175">
      <line x1="0.0" y1="0.0" x2="2.0" y2="0.0" />
      <line x1="0.0" y1="0.0" x2="0.0" y2="2.0" />
      <path d="M 2.0,0.0 C 1.944444,0.0 1.922222,0.033333 1.9,0.066667" />
      <path d="M 2.0,0.0 C 1.944444,0.0 1.922222,-0.033333 1.9,-0.066667" />
      <path d="M 0.0,2.0 C -0.0,1.944444 -0.033333,1.922222 -0.066667,1.9" />
      <path d="M 0.0,2.0 C -0.0,1.944444 0.033333,1.922222 0.066667,1.9" />
      <line x1="2.0" y1="-0.17" x2="2.223" y2="0.17" />
      <line x1="2.233499" y1="-0.17" x2="2.011501" y2="0.17" />
      <line x1="0.17" y1="2.1175" x2="0.022" y2="2.1175" />
      <line x1="-0.17" y1="2.0" x2="0.022" y2="2.1175" />
      <line x1="0.022" y1="2.1175" x2="-0.17" y2="2.2375" />
      <path d="M 1.652902,-0.937829 A 6.0,6.0 0.0 0,1 -1.825521,-0.729422" />
      <path d="M 2.222098,0.975024 A 8.0,8.0 0.0 0,1 -2.252963,0.706052" />
      <path d="M -2.252963,0.706052 A 0.75,0.75 0.0 0,1 -1.825521,-0.729422" />
      <path d="M 1.652902,-0.937829 A 1.0,1.0 0.0 1,1 2.222098,0.975024" />
    </g>
    <g fill="none" stroke="rgb(0,0,0)" stroke-width="0.005175" id="dashed" stroke-dasharray="0.0621 0.09315">
      <path d="M -1.869764,0.738606 A 0.75,0.75 0.0 1,1 -1.425467,-0.482091" />
      <path d="M 1.233956,-0.642788 A 1.0,1.0 0.0 1,1 1.65798,0.939693" />
    </g>
  </g>
</svg>