<?xml version='1.0' encoding='utf-8'?>
<svg width="50.090004mm" height="28.523921mm" viewBox="-2.00381 -2.24131 4.24112 2.41512" version="1.1" xmlns="http://www.w3.org/2000/svg">
  <g transform="scale(1,-1)" stroke-linecap="round">
    <g fill="none" stroke="rgb(0,0,0)" stroke-width="0.007620298828125">
      <line x1="0.0" y1="0.0" x2="2.0" y2="0.0" />
      <line x1="0.0" y1="0.0" x2="0.0" y2="2.0" />
      <path d="M 2.0,0.0 C 1.944444,0.0 1.922222,0.033333 1.9,0.066667" />
      <path d="M 2.0,0.0 C 1.944444,0.0 1.922222,-0.033333 1.9,-0.066667" />
      <path d="M 0.0,2.0 C -0.0,1.944444 -0.033333,1.922222 -0.066667,1.9" />
      <path d="M 0.0,2.0 C -0.0,1.944444 0.033333,1.922222 0.066667,1.9" />
      <line x1="2.0" y1="-0.17" x2="2.223" y2="0.17" />
      <line x1="2.233499" y1="-0.17" x2="2.011501" y2="0.17" />
      <line x1="0.17" y1="2.1175" x2="0.022" y2="2.1175" />
      <line x1="-0.17" y1="2.0" x2="0.022" y2="2.1175" />
      <line x1="0.022" y1="2.1175" x2="-0.17" y2="2.2375" />
      <line x1="-0.75" y1="0.031754" x2="1.125" y2="0.515877" />
      <line x1="-0.25" y1="1.661438" x2="0.625" y2="0.669281" />
      <line x1="-0.75" y1="1.968246" x2="1.125" y2="1.484123" />
      <line x1="-0.25" y1="0.338562" x2="0.625" y2="1.330719" />
    </g>
    <g fill="none" stroke="rgb(0,0,0)" stroke-width="0.007620298828125" id="dashed" stroke-dasharray="0.091444 0.137165">
      <circle cx="-1.0" cy="1.0" r="1.0" />
      <circle cx="1.0" cy="1.0" r="0.5" />
    </g>
  </g>
</svg>