<?xml version='1.0' encoding='utf-8'?>
<svg width="100.089987mm" height="61.29504mm" viewBox="-1.70177 -2.23927 3.937039 2.41104" version="1.1" xmlns="http://www.w3.org/2000/svg">
  <g transform="scale(1,-1)" stroke-linecap="round">
    <g fill="none" stroke="rgb(0,0,0)" stroke-width="0.0035401494140625">
      <line x1="0.0" y1="0.0" x2="2.0" y2="0.0" />
      <line x1="0.0" y1="0.0" x2="0.0" y2="2.0" />
      <path d="M 2.0,0.0 C 1.944444,0.0 1.922222,0.033333 1.9,0.066667" />
      <path d="M 2.0,0.0 C 1.944444,0.0 1.922222,-0.033333 1.9,-0.066667" />
      <path d="M 0.0,2.0 C -0.0,1.944444 -0.033333,1.922222 -0.066667,1.9" />
      <path d="M 0.0,2.0 C -0.0,1.944444 0.033333,1.922222 0.066667,1.9" />
      <line x1="2.0" y1="-0.17" x2="2.223" y2="0.17" />
      <line x1="2.233499" y1="-0.17" x2="2.011501" y2="0.17" />
      <line x1="0.17" y1="2.1175" x2="0.022" y2="2.1175" />
      <line x1="-0.17" y1="2.0" x2="0.022" y2="2.1175" />
      <line x1="0.022" y1="2.1175" x2="-0.17" y2="2.2375" />
      <path d="M 1.5,0.0 L 1.5,0.8 A 0.2,0.2 0.0 0,1 1.3,1.0 L -1.3,1.0 A 0.2,0.2 0.0 0,1 -1.5,0.8 L -1.5,0.0 L -1.7,0.0 L -1.7,0.8 A 0.39999999999999997,0.39999999999999997 0.0 0,0 -1.3,1.2 L 1.3,1.2 A 0.39999999999999997,0.39999999999999997 0.0 0,0 1.7,0.8 L 1.7,0.0 L 1.5,0.0" />
    </g>
    <g fill="none" stroke="rgb(0,0,0)" stroke-width="0.0035401494140625" id="dashed" stroke-dasharray="0.042482 0.063723">
      <path d="M 1.5,0.0 L 1.5,0.8 A 0.2,0.2 0.0 0,1 1.3,1.0 L -1.3,1.0 A 0.2,0.2 0.0 0,1 -1.5,0.8 L -1.5,0.0" />
    </g>
  </g>
</svg>