<?xml version='1.0' encoding='utf-8'?>
<svg width="37.840214mm" height="50.090006mm" viewBox="-0.172865 -2.686291 2.40923 3.189156" version="1.1" xmlns="http://www.w3.org/2000/svg">
  <g transform="scale(1,-1)" stroke-linecap="round">
    <g fill="none" stroke="rgb(0,0,0)" stroke-width="0.005730165832757586">
      <line x1="0.0" y1="0.0" x2="2.0" y2="0.0" />
      <line x1="0.0" y1="0.0" x2="0.0" y2="2.0" />
      <path d="M 2.0,0.0 C 1.944444,0.0 1.922222,0.033333 1.9,0.066667" />
      <path d="M 2.0,0.0 C 1.944444,0.0 1.922222,-0.033333 1.9,-0.066667" />
      <path d="M 0.0,2.0 C -0.0,1.944444 -0.033333,1.922222 -0.066667,1.9" />
      <path d="M 0.0,2.0 C -0.0,1.944444 0.033333,1.922222 0.066667,1.9" />
      <line x1="2.0" y1="-0.17" x2="2.223" y2="0.17" />
      <line x1="2.233499" y1="-0.17" x2="2.011501" y2="0.17" />
      <line x1="0.17" y1="2.1175" x2="0.022" y2="2.1175" />
      <line x1="-0.17" y1="2.0" x2="0.022" y2="2.1175" />
      <line x1="0.022" y1="2.1175" x2="-0.17" y2="2.2375" />
      <path d="M 1.51423,1.27059 A 0.8000000000000002,0.8000000000000002 0.0 0,1 1.8,1.883425" />
      <path d="M 1.8,1.883425 A 0.8000000000000002,0.8000000000000002 0.0 1,1 1.51423,1.27059" />
    </g>
    <g fill="none" stroke="rgb(0,0,0)" stroke-width="0.005730165832757586" id="dashed" stroke-dasharray="0.068762 0.103143">
      <line x1="0.0" y1="0.0" x2="2.0" y2="1.678199" />
      <line x1="1.8" y1="0.0" x2="1.8" y2="2.0" />
      <line x1="1.0" y1="-0.5" x2="1.0" y2="2.5" />
    </g>
  </g>
</svg>