<?xml version='1.0' encoding='utf-8'?>
<svg width="50.006916mm" height="50.08999mm" viewBox="-0.172167 -2.239667 2.407833 2.411833" version="1.1" xmlns="http://www.w3.org/2000/svg">
  <g transform="scale(1,-1)" stroke-linecap="round">
    <g fill="none" stroke="rgb(0,0,0)" stroke-width="0.0043335">
      <line x1="0.0" y1="0.0" x2="2.0" y2="0.0" />
      <line x1="0.0" y1="0.0" x2="0.0" y2="2.0" />
      <path d="M 2.0,0.0 C 1.944444,0.0 1.922222,0.033333 1.9,0.066667" />
      <path d="M 2.0,0.0 C 1.944444,0.0 1.922222,-0.033333 1.9,-0.066667" />
      <path d="M 0.0,2.0 C -0.0,1.944444 -0.033333,1.922222 -0.066667,1.9" />
      <path d="M 0.0,2.0 C -0.0,1.944444 0.033333,1.922222 0.066667,1.9" />
      <line x1="2.0" y1="-0.17" x2="2.223" y2="0.17" />
      <line x1="2.233499" y1="-0.17" x2="2.011501" y2="0.17" />
      <line x1="0.17" y1="2.1175" x2="0.022" y2="2.1175" />
      <line x1="-0.17" y1="2.0" x2="0.022" y2="2.1175" />
      <line x1="0.022" y1="2.1175" x2="-0.17" y2="2.2375" />
      <path d="M 0.75519,1.308027 A 0.26632062806233736,0.26632062806233736 0.0 0,1 1.157018,0.970853" />
    </g>
    <g fill="none" stroke="rgb(0,0,0)" stroke-width="0.0043335" id="dashed" stroke-dasharray="0.052002 0.078003">
      <line x1="0.0" y1="0.0" x2="0.9" y2="1.558846" />
      <line x1="0.0" y1="0.0" x2="1.37888" y2="1.157018" />
      <path d="M 1.8,0.0 A 1.8,1.8 0.0 0,1 0.0,1.8" />
    </g>
  </g>
</svg>