<?xml version='1.0' encoding='utf-8'?>
<svg width="40.148317mm" height="50.09mm" viewBox="-0.1727 -2.5027 2.408899 3.0054" version="1.1" xmlns="http://www.w3.org/2000/svg">
  <g transform="scale(1,-1)" stroke-linecap="round">
    <g fill="none" stroke="rgb(0,0,0)" stroke-width="0.005399999999999999">
      <line x1="0.0" y1="0.0" x2="2.0" y2="0.0" />
      <line x1="0.0" y1="0.0" x2="0.0" y2="2.0" />
      <path d="M 2.0,0.0 C 1.944444,0.0 1.922222,0.033333 1.9,0.066667" />
      <path d="M 2.0,0.0 C 1.944444,0.0 1.922222,-0.033333 1.9,-0.066667" />
      <path d="M 0.0,2.0 C -0.0,1.944444 -0.033333,1.922222 -0.066667,1.9" />
      <path d="M 0.0,2.0 C -0.0,1.944444 0.033333,1.922222 0.066667,1.9" />
      <line x1="2.0" y1="-0.17" x2="2.223" y2="0.17" />
      <line x1="2.233499" y1="-0.17" x2="2.011501" y2="0.17" />
      <line x1="0.17" y1="2.1175" x2="0.022" y2="2.1175" />
      <line x1="-0.17" y1="2.0" x2="0.022" y2="2.1175" />
      <line x1="0.022" y1="2.1175" x2="-0.17" y2="2.2375" />
      <circle cx="1.0" cy="0.186396" r="0.5" />
      <circle cx="1.0" cy="1.491803" r="0.5" />
    </g>
    <g fill="none" stroke="rgb(0,0,0)" stroke-width="0.005399999999999999" id="dashed" stroke-dasharray="0.0648 0.0972">
      <line x1="0.0" y1="0.0" x2="2.0" y2="1.678199" />
      <line x1="1.0" y1="-0.5" x2="1.0" y2="2.5" />
    </g>
  </g>
</svg>